<svg xmlns="http://www.w3.org/2000/svg" xmlns:xlink="http://www.w3.org/1999/xlink" viewBox="0 0 60 95" width="60" height="95" preserveAspectRatio="xMidYMid meet" style="width: 100%; height: 100%; transform: translate3d(0px, 0px, 0px); content-visibility: visible;"><defs><clipPath id="__lottie_element_50"><rect width="60" height="95" x="0" y="0"></rect></clipPath><clipPath id="__lottie_element_52"><path d="M0,0 L60,0 L60,95 L0,95z"></path></clipPath><clipPath id="__lottie_element_58"><path fill="#ffffff" clip-rule="nonzero" d=" M23.069799423217773,1.7861000299453735 C19.34886932373047,2.7535400390625 13.841899871826172,4.539599895477295 10.79069995880127,5.804699897766113 C7.739540100097656,7.069819927215576 4.018599987030029,8.930299758911133 2.604599952697754,9.897700309753418 C1.1162300109863281,10.865139961242676 0,12.204700469970703 0,13.023300170898438 C0,13.841899871826172 0.595300018787384,14.586099624633789 1.3394999504089355,14.660499572753906 C2.009269952774048,14.80933952331543 5.2093000411987305,13.618599891662598 8.33489990234375,11.981399536132812 C11.534899711608887,10.418609619140625 16.818599700927734,8.260499954223633 20.093000411987305,7.218599796295166 C23.367420196533203,6.1767401695251465 29.023300170898438,4.986000061035156 32.74420166015625,4.5395002365112305 C37.43257141113281,3.944149971008301 41.00469970703125,3.869800090789795 44.65119934082031,4.390699863433838 C47.47911071777344,4.837210178375244 51.34880065917969,5.655799865722656 53.20930099487305,6.3256001472473145 C55.06977081298828,6.995369911193848 57.897701263427734,8.26039981842041 59.5349006652832,9.227899551391602 C61.17211151123047,10.195340156555176 64.59539794921875,13.172100067138672 67.12560272216797,15.925600051879883 C70.32559967041016,19.27444076538086 72.78140258789062,22.846500396728516 74.71630096435547,26.93950080871582 C76.35350799560547,30.362760543823242 78.36280059814453,35.423301696777344 79.10700225830078,38.325599670410156 C79.92559814453125,41.227928161621094 80.818603515625,45.5442008972168 81.1906967163086,48 C81.71163177490234,52.01860046386719 81.63719940185547,52.39070129394531 80.5208969116211,51.86980056762695 C79.85112762451172,51.57212829589844 77.39540100097656,50.15810012817383 75.16280364990234,48.74420166015625 C72.93023681640625,47.33024978637695 70.47440338134766,46.2140007019043 69.7302017211914,46.36280059814453 C68.98600769042969,46.43722152709961 68.46510314941406,47.181400299072266 68.46510314941406,48.22330093383789 C68.46510314941406,49.48841857910156 70.17680358886719,50.902400970458984 76.27909851074219,54.69770050048828 C80.59538269042969,57.37677001953125 84.53959655761719,59.5349006652832 85.06050109863281,59.5349006652832 C85.50701141357422,59.5349006652832 88.03730010986328,56.111698150634766 90.56749725341797,51.86980056762695 C93.09773254394531,47.70235824584961 95.18150329589844,43.60929870605469 95.25589752197266,42.79069900512695 C95.25589752197266,41.7984504699707 94.6854019165039,41.227901458740234 93.54429626464844,41.0791015625 C92.20477294921875,40.930259704589844 91.38619995117188,41.823299407958984 89.15360260009766,45.5442008972168 C89.15360260009766,45.5442008972168 86.40010070800781,50.232601165771484 86.40010070800781,50.232601165771484 C85.58149719238281,46.80934143066406 84.8373031616211,43.237300872802734 84.09310150146484,40.186100006103516 C83.42333221435547,37.13494110107422 81.8604965209961,32.074501037597656 80.59539794921875,29.023300170898438 C79.40470123291016,25.972139358520508 76.94879913330078,21.28380012512207 75.16280364990234,18.604700088500977 C73.451171875,15.925629615783691 70.32559967041016,12.279199600219727 68.31629943847656,10.418700218200684 C66.30699920654297,8.55823040008545 62.660499572753906,6.0279998779296875 60.2047004699707,4.688499927520752 C57.823299407958984,3.423379898071289 53.8046989440918,1.7861000299453735 51.348899841308594,1.1907999515533447 C48.446571350097656,0.4466100037097931 43.83259963989258,0.00009999999747378752 38.325599670410156,0.00009999999747378752 C31.925600051879883,0.07451999932527542 28.130300521850586,0.5210999846458435 23.069799423217773,1.7862000465393066 C23.069799423217773,1.7862000465393066 23.069799423217773,1.7861000299453735 23.069799423217773,1.7861000299453735 C23.069799423217773,1.7861000299453735 23.069799423217773,1.7861000299453735 23.069799423217773,1.7861000299453735" fill-opacity="1"></path></clipPath></defs><g clip-path="url(#__lottie_element_50)"><g clip-path="url(#__lottie_element_52)" transform="matrix(1,0,0,1,0,0)" opacity="1" style="display: block;"><g clip-path="url(#__lottie_element_58)" transform="matrix(0,1,-1,0,59.5349006652832,0)" opacity="1" style="display: block;"><g opacity="1" transform="matrix(1,0,0,1,0,0)"><path fill="rgb(0,255,0)" fill-opacity="0" d=" M150.38369750976562,-32.26744842529297 C150.38369750976562,-32.26744842529297 -50.127899169921875,-32.26744842529297 -50.127899169921875,-32.26744842529297 C-50.127899169921875,-32.26744842529297 -50.127899169921875,96.8023452758789 -50.127899169921875,96.8023452758789 C-50.127899169921875,96.8023452758789 150.38369750976562,96.8023452758789 150.38369750976562,96.8023452758789 C150.38369750976562,96.8023452758789 150.38369750976562,-32.26744842529297 150.38369750976562,-32.26744842529297z"></path></g><g opacity="1" transform="matrix(1,0,0,1,0,0)"><path stroke-linecap="butt" stroke-linejoin="miter" fill-opacity="0" stroke-miterlimit="4" stroke="rgb(255,255,255)" stroke-opacity="1" stroke-width="10" d=" M23.069799423217773,1.7861000299453735 C19.34886932373047,2.7535400390625 13.841899871826172,4.539599895477295 10.79069995880127,5.804699897766113 C7.739540100097656,7.069819927215576 4.018599987030029,8.930299758911133 2.604599952697754,9.897700309753418 C1.1162300109863281,10.865139961242676 0,12.204700469970703 0,13.023300170898438 C0,13.841899871826172 0.595300018787384,14.586099624633789 1.3394999504089355,14.660499572753906 C2.009269952774048,14.80933952331543 5.2093000411987305,13.618599891662598 8.33489990234375,11.981399536132812 C11.534899711608887,10.418609619140625 16.818599700927734,8.260499954223633 20.093000411987305,7.218599796295166 C23.367420196533203,6.1767401695251465 29.023300170898438,4.986000061035156 32.74420166015625,4.5395002365112305 C37.43257141113281,3.944149971008301 41.00469970703125,3.869800090789795 44.65119934082031,4.390699863433838 C47.47911071777344,4.837210178375244 51.34880065917969,5.655799865722656 53.20930099487305,6.3256001472473145 C55.06977081298828,6.995369911193848 57.897701263427734,8.26039981842041 59.5349006652832,9.227899551391602 C61.17211151123047,10.195340156555176 64.59539794921875,13.172100067138672 67.12560272216797,15.925600051879883 C70.32559967041016,19.27444076538086 72.78140258789062,22.846500396728516 74.71630096435547,26.93950080871582 C76.35350799560547,30.362760543823242 78.36280059814453,35.423301696777344 79.10700225830078,38.325599670410156 C79.92559814453125,41.227928161621094 80.818603515625,45.5442008972168 81.1906967163086,48 C81.71163177490234,52.01860046386719 81.63719940185547,52.39070129394531 80.5208969116211,51.86980056762695 C79.85112762451172,51.57212829589844 77.39540100097656,50.15810012817383 75.16280364990234,48.74420166015625 C72.93023681640625,47.33024978637695 70.47440338134766,46.2140007019043 69.7302017211914,46.36280059814453 C68.98600769042969,46.43722152709961 68.46510314941406,47.181400299072266 68.46510314941406,48.22330093383789 C68.46510314941406,49.48841857910156 70.17680358886719,50.902400970458984 76.27909851074219,54.69770050048828 C80.59538269042969,57.37677001953125 84.53959655761719,59.5349006652832 85.06050109863281,59.5349006652832 C85.50701141357422,59.5349006652832 88.03730010986328,56.111698150634766 90.56749725341797,51.86980056762695 C93.09773254394531,47.70235824584961 95.18150329589844,43.60929870605469 95.25589752197266,42.79069900512695 C95.25589752197266,41.7984504699707 94.6854019165039,41.227901458740234 93.54429626464844,41.0791015625 C92.20477294921875,40.930259704589844 91.38619995117188,41.823299407958984 89.15360260009766,45.5442008972168 C89.15360260009766,45.5442008972168 86.40010070800781,50.232601165771484 86.40010070800781,50.232601165771484 C85.58149719238281,46.80934143066406 84.8373031616211,43.237300872802734 84.09310150146484,40.186100006103516 C83.42333221435547,37.13494110107422 81.8604965209961,32.074501037597656 80.59539794921875,29.023300170898438 C79.40470123291016,25.972139358520508 76.94879913330078,21.28380012512207 75.16280364990234,18.604700088500977 C73.451171875,15.925629615783691 70.32559967041016,12.279199600219727 68.31629943847656,10.418700218200684 C66.30699920654297,8.55823040008545 62.660499572753906,6.0279998779296875 60.2047004699707,4.688499927520752 C57.823299407958984,3.423379898071289 53.8046989440918,1.7861000299453735 51.348899841308594,1.1907999515533447 C48.446571350097656,0.4466100037097931 43.83259963989258,0.00009999999747378752 38.325599670410156,0.00009999999747378752 C31.988000869750977,0.07400000095367432 28.20400047302246,0.5120000243186951 23.215999603271484,1.75"></path></g></g></g></g></svg>