<svg xmlns="http://www.w3.org/2000/svg" xmlns:xlink="http://www.w3.org/1999/xlink" viewBox="0 0 140 36" width="140" height="36" preserveAspectRatio="xMidYMid meet" style="width: 100%; height: 100%; transform: translate3d(0px, 0px, 0px); content-visibility: visible;"><defs><clipPath id="__lottie_element_3"><rect width="140" height="36" x="0" y="0"></rect></clipPath><clipPath id="__lottie_element_5"><path d="M0,0 L20000,0 L20000,20000 L0,20000z"></path></clipPath><clipPath id="__lottie_element_9"><path d="M0,0 L20000,0 L20000,20000 L0,20000z"></path></clipPath><g id="__lottie_element_12"><g clip-path="url(#__lottie_element_13)" transform="matrix(1,0,0,1,0,0)" opacity="1" style="display: block;"><g transform="matrix(1,0,0,1,10000,10000)" opacity="1" style="display: block;"><g opacity="1" transform="matrix(1,0,0,1,-0.000002254540277135675,0)"><path fill="rgb(0,0,0)" fill-opacity="1" d=" M132.07400512695312,10.372350692749023 C131.5260009765625,10.482050895690918 131.3070068359375,10.372350692749023 131.08799743652344,10.482050895690918 C121.43900299072266,15.63545036315918 111.13200378417969,19.03445053100586 100.93499755859375,22.762451171875 C90.40869903564453,26.60004997253418 79.88259887695312,30.4377498626709 68.91790008544922,33.069252014160156 C62.7776985168457,34.384952545166016 56.63750076293945,35.59115219116211 50.38759994506836,35.371849060058594 C48.52360153198242,35.262149810791016 46.54999923706055,35.042850494384766 44.68600082397461,34.384952545166016 C40.95800018310547,33.17885208129883 39.42300033569336,29.889450073242188 40.8484001159668,26.16145133972168 C41.39659881591797,24.62645149230957 42.273799896240234,23.201051712036133 43.370201110839844,21.885250091552734 C45.01490020751953,19.801950454711914 46.87889862060547,17.937950134277344 48.63330078125,15.964350700378418 C49.510398864746094,14.977550506591797 50.38759994506836,13.990750312805176 51.15520095825195,12.894250869750977 C52.58060073852539,10.701351165771484 52.141998291015625,8.946950912475586 50.05870056152344,7.521540641784668 C47.975399017333984,6.0961408615112305 45.563201904296875,5.547900676727295 43.150901794433594,5.328610897064209 C39.6422004699707,5.109320640563965 36.35279846191406,5.767200946807861 33.06340026855469,6.754020690917969 C25.826799392700195,8.946950912475586 18.91900062561035,12.017050743103027 12.559499740600586,16.073951721191406 C9.927969932556152,17.718650817871094 7.296450138092041,19.25374984741211 4.66493034362793,20.788850784301758 C3.787760019302368,21.337051391601562 2.6912901401519775,21.665950775146484 1.704470157623291,21.775650024414062 C1.156230092048645,21.885250091552734 0.16941413283348083,21.337051391601562 0.05976693332195282,20.89845085144043 C-0.15952686965465546,20.350250244140625 0.27906012535095215,19.473051071166992 0.49835413694381714,18.81515121459961 C0.6080011129379272,18.595849990844727 0.9369411468505859,18.486249923706055 1.156230092048645,18.376550674438477 C5.213160037994385,15.63545036315918 9.379739761352539,12.784550666809082 13.765600204467773,10.153050422668457 C21.111900329589844,5.657550811767578 29.006500244140625,2.258500814437866 37.55900192260742,0.5041517615318298 C41.615901947021484,-0.2633732259273529 45.67280197143555,-0.2633732259273529 49.510398864746094,1.2716808319091797 C51.264801025390625,1.9295607805252075 53.019100189208984,2.9163808822631836 54.44459915161133,4.122490882873535 C57.73400115966797,6.973310947418213 58.39179992675781,11.139850616455078 56.19889831542969,14.867850303649902 C55.10240173339844,16.73185157775879 53.56740188598633,18.376550674438477 52.141998291015625,20.021251678466797 C50.49729919433594,22.104551315307617 48.74290084838867,24.078250885009766 47.098201751708984,26.051851272583008 C46.65959930419922,26.60004997253418 46.44029998779297,27.477251052856445 46.11140060424805,28.135150909423828 C47.20790100097656,29.231651306152344 48.52360153198242,29.01235008239746 49.72970199584961,29.121950149536133 C56.4182014465332,29.231651306152344 62.99700164794922,28.135150909423828 69.46620178222656,26.16145133972168 C82.84310150146484,22.104551315307617 96.11029815673828,17.828350067138672 109.37799835205078,13.661750793457031 C114.53099822998047,12.017050743103027 119.68399810791016,10.482050895690918 125.2760009765625,8.7276611328125 C124.50900268554688,8.398720741271973 124.06999969482422,8.179420471191406 123.52200317382812,7.96013069152832 C121.43900299072266,7.302250862121582 119.3550033569336,6.754020690917969 117.27200317382812,5.986490726470947 C116.3949966430664,5.657550811767578 115.51799774169922,5.218960762023926 114.75,4.5610809326171875 C113.87300109863281,3.90320086479187 113.54399871826172,2.8067307472229004 114.2020034790039,1.9295607805252075 C114.64099884033203,1.2716808319091797 115.51799774169922,0.8330907821655273 116.28500366210938,0.6138007640838623 C117.0530014038086,0.3945057690143585 117.81999969482422,0.6138007640838623 118.58799743652344,0.8330907821655273 C124.61800384521484,2.3681507110595703 130.6490020751953,3.793550729751587 136.67999267578125,5.438260555267334 C139.75,6.315430641174316 140.8459930419922,8.7276611328125 139.31100463867188,11.578451156616211 C138.54400634765625,13.113551139831543 137.44700622558594,14.648550987243652 136.13099670410156,15.745050430297852 C131.5260009765625,20.021251678466797 126.7020034790039,24.187850952148438 121.87699890136719,28.2447509765625 C121,29.01235008239746 119.79399871826172,29.670150756835938 118.697998046875,30.10875129699707 C117.38200378417969,30.54734992980957 116.50499725341797,29.670150756835938 117.16200256347656,28.46405029296875 C118.04000091552734,26.819351196289062 119.0260009765625,25.06505012512207 120.34200286865234,23.639650344848633 C123.3030014038086,20.350250244140625 126.37300109863281,17.2801513671875 129.33299255371094,14.100350379943848 C130.1009979248047,13.223151206970215 130.8679962158203,12.455650329589844 131.63600158691406,11.578451156616211 C131.63600158691406,11.249550819396973 131.74600219726562,10.920550346374512 132.07400512695312,10.372350692749023 C132.07400512695312,10.372350692749023 132.07400512695312,10.372350692749023 132.07400512695312,10.372350692749023 C132.07400512695312,10.372350692749023 132.07400512695312,10.372350692749023 132.07400512695312,10.372350692749023"></path></g></g></g></g><clipPath id="__lottie_element_13"><path d="M0,0 L20000,0 L20000,20000 L0,20000z"></path></clipPath><mask id="__lottie_element_12_1" mask-type="alpha"><use xlink:href="#__lottie_element_12"></use></mask><linearGradient id="__lottie_element_19" spreadMethod="pad" gradientUnits="userSpaceOnUse" x1="140" y1="35.835201263427734" x2="140.02000427246094" y2="0.4359700083732605"><stop offset="0%" stop-color="rgb(255,121,121)" stop-opacity="1"></stop><stop offset="11%" stop-color="rgb(253,180,140)" stop-opacity="1"></stop><stop offset="25%" stop-color="rgb(255,240,142)" stop-opacity="1"></stop><stop offset="38%" stop-color="rgb(170,255,136)" stop-opacity="1"></stop><stop offset="50%" stop-color="rgb(153,233,255)" stop-opacity="1"></stop><stop offset="63%" stop-color="rgb(153,186,255)" stop-opacity="1"></stop><stop offset="75%" stop-color="rgb(136,157,255)" stop-opacity="1"></stop><stop offset="88%" stop-color="rgb(199,128,255)" stop-opacity="1"></stop><stop offset="100%" stop-color="rgb(255,151,254)" stop-opacity="1"></stop></linearGradient></defs><g clip-path="url(#__lottie_element_3)"><g clip-path="url(#__lottie_element_5)" transform="matrix(1,0,0,1,-10000,-9999.5625)" opacity="1" style="display: block;"><g mask="url(#__lottie_element_12_1)" style="display: block;"><g clip-path="url(#__lottie_element_9)" transform="matrix(1,0,0,1,0,0)" opacity="1"><g transform="matrix(1,0,0,1,10000,10000)" opacity="1" style="display: block;"><g opacity="1" transform="matrix(0.9714970588684082,-0.23705153167247772,0.23705153167247772,0.9714970588684082,68.78999328613281,14.488713264465332)"><path fill="url(#__lottie_element_19)" fill-opacity="1" d="M0 0"></path><path fill="rgb(255,255,255)" fill-opacity="1" d=" M-75.31580352783203,-28.18878173828125 C-75.31580352783203,-28.18878173828125 75.31580352783203,-28.18878173828125 75.31580352783203,-28.18878173828125 C75.31580352783203,-28.18878173828125 75.31580352783203,28.18878173828125 75.31580352783203,28.18878173828125 C75.31580352783203,28.18878173828125 -75.31580352783203,28.18878173828125 -75.31580352783203,28.18878173828125 C-75.31580352783203,28.18878173828125 -75.31580352783203,-28.18878173828125 -75.31580352783203,-28.18878173828125"></path></g></g></g></g></g></g></svg>