<svg width="100%" height="100%" viewBox="0 0 175 28" fill="none" xmlns="http://www.w3.org/2000/svg">
<path fill-rule="evenodd" clip-rule="evenodd" d="M7.5 10.6398C4.9 10.6398 3 12.5398 3 15.1398C3 17.7398 4.9 19.6398 7.5 19.6398C10.1 19.6398 12 17.7398 12 15.1398C12 12.5398 10.1 10.6398 7.5 10.6398ZM0 4.03979H3V9.9398H3.1C3.8 8.7398 5.8 7.83979 7.8 7.83979C11.5 7.83979 15.2 10.5398 15.2 15.2398C15.2 19.9398 11.5 22.6398 7.8 22.6398C5.8 22.6398 3.9 21.7398 3.1 20.5398H3V22.2398H0V4.03979Z" fill="white"></path>
<path fill-rule="evenodd" clip-rule="evenodd" d="M18.0996 8H21.0996V15.8C21.0996 17.9 22.5996 19.3 24.4996 19.3C26.3996 19.3 27.8996 17.8 27.8996 15.8V8H30.8996V16.1C30.8996 20 27.7996 22.4 24.4996 22.4C21.1996 22.4 18.0996 20.1 18.0996 16.1V8Z" fill="white"></path>
<path fill-rule="evenodd" clip-rule="evenodd" d="M40.5002 11.3H34.3002V8.5H45.6002L38.8002 19.6H45.4002V22.4H33.7002L40.5002 11.3Z" fill="white"></path>
<path fill-rule="evenodd" clip-rule="evenodd" d="M54.0002 11.3H47.8002V8.5H59.1002L52.3002 19.6H58.9002V22.4H47.2002L54.0002 11.3Z" fill="white"></path>
<path fill-rule="evenodd" clip-rule="evenodd" d="M62.208 18.0821C63.308 19.2821 65.108 20.1821 66.708 20.1821C68.508 20.1821 69.508 19.1821 69.508 18.3821C69.508 17.4821 68.808 16.9821 67.608 16.7821L65.908 16.4821C61.908 15.7821 60.808 14.4821 60.808 12.4821C60.808 10.0821 62.808 7.88208 66.408 7.88208C68.408 7.88208 70.108 8.48208 72.108 9.78208L70.308 11.8821C68.808 10.6821 67.508 10.2821 66.508 10.2821C65.208 10.2821 63.908 10.8821 63.908 12.0821C63.908 12.8821 64.608 13.3821 65.808 13.5821L68.908 14.1821C71.408 14.6821 72.708 15.8821 72.708 17.8821C72.708 19.9821 71.008 22.5821 66.608 22.5821C64.208 22.5821 62.108 21.7821 60.208 20.0821L62.208 18.0821Z" fill="white"></path>
<path fill-rule="evenodd" clip-rule="evenodd" d="M82.6084 10.6821C80.2084 10.6821 78.1084 12.6821 78.1084 15.2821C78.1084 17.7821 80.2084 19.8821 82.6084 19.8821C85.1084 19.8821 87.1084 17.8821 87.1084 15.2821C87.1084 12.6821 85.1084 10.6821 82.6084 10.6821ZM78.2084 9.98208C79.4084 8.68208 81.0084 7.88208 83.0084 7.88208C87.7084 7.88208 90.4084 11.6821 90.4084 15.2821C90.4084 18.6821 87.5084 22.6821 82.8084 22.6821C80.7084 22.6821 79.0084 21.7821 78.3084 20.5821H78.2084V27.1821H75.1084V8.18208H78.2084V9.98208Z" fill="white"></path>
<path fill-rule="evenodd" clip-rule="evenodd" d="M93.2998 8.4H96.2998V9.9H96.3998C96.8998 8.7 97.9998 8 99.2998 8C99.9998 8 100.6 8.2 101 8.4L99.8998 11.4C99.5998 11.2 98.9998 11 98.6998 11C97.4998 11 96.4998 11.8 96.4998 13.1V22.4H93.2998V8.4Z" fill="white"></path>
<path fill-rule="evenodd" clip-rule="evenodd" d="M108.6 20C111.3 20 113.2 18 113.2 15.4C113.2 12.9 111.3 10.8 108.6 10.8C105.9 10.8 104 12.8 104 15.4C104 18 106 20 108.6 20ZM108.6 8C113.6 8 116.4 11.7 116.4 15.4C116.4 19.1 113.5 22.8 108.6 22.8C103.6 22.8 100.8 19.1 100.8 15.4C100.8 11.7 103.7 8 108.6 8Z" fill="white"></path>
<path fill-rule="evenodd" clip-rule="evenodd" d="M119.9 8H122.9V15.8C122.9 17.9 124.4 19.3 126.3 19.3C128.2 19.3 129.7 17.8 129.7 15.8V8H132.7V16.1C132.7 20 129.6 22.4 126.3 22.4C123 22.4 119.9 20.1 119.9 16.1V8Z" fill="white"></path>
<path fill-rule="evenodd" clip-rule="evenodd" d="M135 8.30005H136.7V4.60005L139.8 3.80005V8.40005H142.2V11.3H139.8V16.9001C139.8 18.4001 140.2 19.1 141.1 19.6L142.7 20.5L141.3 22.9001C138.1 21.4001 136.7 20.3001 136.7 17.4001V11.3H135V8.30005Z" fill="white"></path>
<path opacity="0.097261" fill-rule="evenodd" clip-rule="evenodd" d="M162.069 23.9C154.969 23.9 149.169 23.4 149.169 22.7C149.169 22 154.969 21.5 162.069 21.5C169.169 21.5 174.969 22 174.969 22.7C174.969 23.4 169.169 23.9 162.069 23.9Z" fill="white"></path>
<path fill-rule="evenodd" clip-rule="evenodd" d="M160.869 11.2H163.369V23.9H160.869V11.2Z" fill="white"></path>
<path fill-rule="evenodd" clip-rule="evenodd" d="M155.469 7.6001V9.4001C155.469 12.8001 158.469 15.6001 162.069 15.6001V14.4001C159.069 14.4001 156.669 12.1001 156.669 9.4001V8.7001H167.469V9.4001C167.469 12.1001 165.069 14.4001 162.069 14.4001V15.6001C165.669 15.6001 168.669 12.8001 168.669 9.4001V7.6001H155.469Z" fill="white"></path>
<path fill-rule="evenodd" clip-rule="evenodd" d="M157.769 6.19995V9.19995C157.769 11.5 159.669 13.2999 162.069 13.2999C164.469 13.2999 166.369 11.5 166.369 9.19995V6.19995H157.769Z" fill="white"></path>
<path fill-rule="evenodd" clip-rule="evenodd" d="M157.769 4.2V5.7H166.469V4.2C166.469 1.9 164.569 0 162.169 0C159.769 0.1 157.769 1.9 157.769 4.2Z" fill="white"></path>
<path fill-rule="evenodd" clip-rule="evenodd" d="M149.769 13.3C149.769 13.3 149.469 18.4 152.469 21.3C155.469 24.2 160.669 23.9001 160.669 23.9001C160.669 23.9001 160.969 18.8001 157.969 15.9001C155.469 13.5001 151.569 13.3 150.269 13.3C149.969 13.3 149.769 13.3 149.769 13.3Z" fill="white"></path>
<path fill-rule="evenodd" clip-rule="evenodd" d="M166.169 15.9001C163.169 18.8001 163.469 23.9001 163.469 23.9001C163.469 23.9001 168.669 24.2 171.669 21.3C174.669 18.4 174.369 13.3 174.369 13.3C174.369 13.3 174.169 13.3 173.969 13.3C172.669 13.3 168.669 13.5001 166.169 15.9001Z" fill="white"></path>
</svg>