<svg xmlns="http://www.w3.org/2000/svg" width="100%" height="100%" viewBox="0 0 140 56" fill="none" preserveAspectRatio="xMidYMid meet" aria-hidden="true" role="img">
<g clip-path="url(#clip0_437_1119)">
<path d="M59.0097 20.8589C60.1098 21.749 60.537 23.1165 60.7187 24.4699C60.7353 24.6273 60.7494 24.7848 60.7617 24.9427C60.7707 24.9157 60.7797 24.8888 60.789 24.8611C61.1128 23.9044 61.4868 22.9639 62.0937 22.149C62.1223 22.1106 62.1508 22.0723 62.1802 22.0328C62.2633 21.9256 62.3492 21.8221 62.4375 21.7192C62.4896 21.6577 62.4896 21.6577 62.5427 21.5949C63.2907 20.733 64.3672 20.0747 65.5222 19.9877C65.6893 19.9828 65.8556 19.9823 66.0227 19.9838C66.0781 19.9833 66.1335 19.9829 66.1906 19.9823C67.1744 19.9853 68.0978 20.2866 68.8398 20.9455C68.8833 20.9829 68.8833 20.9829 68.9276 21.0211C69.6774 21.7126 70.0213 22.7596 70.2229 23.7312C70.2296 23.7626 70.2362 23.7941 70.2431 23.8266C70.3815 24.5368 70.3991 25.2491 70.3965 25.97C70.3964 26.0658 70.3965 26.1616 70.3965 26.2575C70.3965 26.5149 70.396 26.7724 70.3954 27.0299C70.3949 27.2999 70.3948 27.57 70.3947 27.84C70.3945 28.2925 70.394 28.7449 70.3932 29.1973C70.3924 29.6628 70.3918 30.1284 70.3914 30.5939C70.3914 30.6371 70.3914 30.6371 70.3914 30.6812C70.3913 30.8257 70.3911 30.9702 70.391 31.1147C70.3901 32.3095 70.3886 33.5043 70.3867 34.6991C69.2807 34.6991 68.1747 34.6991 67.0352 34.6991C67.0342 34.3169 67.0342 34.3169 67.0333 33.9271C67.0311 33.0822 67.0282 32.2373 67.025 31.3924C67.0231 30.8806 67.0214 30.3687 67.0203 29.8568C67.0193 29.4101 67.0178 28.9635 67.0159 28.5168C67.0149 28.2808 67.014 28.0447 67.0138 27.8087C67.1 25.5199 67.1 25.5199 66.1746 23.5149C65.75 23.1314 65.1904 22.9896 64.6281 22.9998C63.8069 23.0558 63.1769 23.3629 62.6094 23.9541C62.5666 23.9972 62.5666 23.9972 62.5229 24.0411C61.2824 25.3628 60.8899 27.6532 60.8818 29.4002C60.8814 29.4582 60.881 29.5163 60.8805 29.5744C60.8794 29.7307 60.8785 29.8871 60.8776 30.0434C60.8766 30.2073 60.8755 30.3712 60.8743 30.5351C60.8722 30.8448 60.8703 31.1546 60.8684 31.4643C60.8659 31.8833 60.863 32.3023 60.8602 32.7213C60.8558 33.3805 60.8517 34.0398 60.8477 34.6991C59.7416 34.6991 58.6356 34.6991 57.4961 34.6991C57.4952 34.4648 57.4944 34.2304 57.4935 33.989C57.4906 33.2105 57.4873 32.432 57.4837 31.6535C57.4816 31.182 57.4796 30.7105 57.478 30.239C57.4765 29.8274 57.4748 29.4158 57.4728 29.0042C57.4717 28.7869 57.4708 28.5695 57.4702 28.3521C57.5954 25.8031 57.5954 25.8031 56.6367 23.5673C56.6138 23.5432 56.591 23.5191 56.5674 23.4943C56.1773 23.1245 55.6551 23.012 55.1328 22.9978C54.3487 23.0191 53.6744 23.322 53.1052 23.8547C52.0471 24.9928 51.6454 26.5995 51.4268 28.0963C51.4197 28.1443 51.4127 28.1922 51.4055 28.2416C51.3015 28.9976 51.3003 29.7538 51.2956 30.5155C51.2946 30.663 51.2934 30.8106 51.2923 30.9581C51.2902 31.2363 51.2882 31.5146 51.2864 31.7928C51.284 32.1413 51.2814 32.4897 51.2788 32.8382C51.2742 33.4585 51.2699 34.0788 51.2656 34.6991C50.1596 34.6991 49.0536 34.6991 47.9141 34.6991C47.9141 29.9193 47.9141 25.1395 47.9141 20.2149C49.0059 20.2149 50.0977 20.2149 51.2227 20.2149C51.2368 21.7609 51.251 23.3068 51.2656 24.8997C51.3932 24.4316 51.3932 24.4316 51.5234 23.9541C52.1272 22.4052 53.0459 21.0184 54.6064 20.3116C56.0426 19.7018 57.7742 19.8955 59.0097 20.8589Z" fill="currentColor"></path>
<path d="M24.496 20.129C24.5591 20.1418 24.5591 20.1418 24.6234 20.1549C25.2259 20.2823 25.7887 20.4636 26.3437 20.7307C26.3726 20.7446 26.4016 20.7584 26.4314 20.7727C27.8132 21.4453 28.8983 22.6204 29.4175 24.0712C29.5818 24.5533 29.6953 25.0328 29.6953 25.5445C28.4475 25.5445 27.1996 25.5445 25.914 25.5445C25.8289 25.2041 25.8289 25.2041 25.7421 24.8568C25.6906 24.7277 25.6433 24.6144 25.5783 24.4942C25.5635 24.4657 25.5486 24.4373 25.5333 24.408C25.4109 24.1794 25.2717 23.9751 25.0976 23.7823C25.061 23.739 25.061 23.739 25.0236 23.6949C24.5167 23.1362 23.7024 22.8386 22.9649 22.7857C21.8642 22.7327 20.8864 22.979 20.0504 23.7215C19.0545 24.6374 18.6191 25.9767 18.5541 27.299C18.5141 28.6684 18.9131 30.002 19.8125 31.0459C19.8369 31.0747 19.8614 31.1036 19.8866 31.1332C20.4453 31.7389 21.3397 32.1678 22.1573 32.2124C23.1047 32.2438 24.0069 32.1257 24.7324 31.4596C24.8136 31.3809 24.891 31.3002 24.9687 31.2179C24.9994 31.1858 25.0301 31.1538 25.0617 31.1208C25.5441 30.5691 25.8042 29.8593 26.0124 29.168C26.0492 29.0484 26.0893 28.9297 26.1289 28.811C24.9519 28.811 23.775 28.811 22.5625 28.811C22.5625 28.3146 22.5625 27.8181 22.5625 27.3067C25.0581 27.3067 27.5537 27.3067 30.125 27.3067C30.125 29.7462 30.125 32.1858 30.125 34.6992C29.0189 34.6992 27.9129 34.6992 26.7734 34.6992C26.7592 33.366 26.745 32.0328 26.7304 30.6591C26.6453 30.957 26.5603 31.2548 26.4726 31.5617C26.3779 31.7959 26.2829 32.0234 26.1718 32.2494C26.148 32.2983 26.1241 32.3473 26.0995 32.3978C25.9272 32.7337 25.7216 33.0308 25.4843 33.3239C25.4558 33.36 25.4273 33.3962 25.3979 33.4335C24.6189 34.3641 23.4062 34.8803 22.2187 35.0001C22.1055 35.0053 21.9932 35.0091 21.88 35.0103C21.8487 35.0107 21.8174 35.0112 21.7851 35.0116C21.0843 35.0191 20.408 35.0134 19.7265 34.8282C19.6756 34.8144 19.6756 34.8144 19.6237 34.8003C18.3909 34.4516 17.2784 33.7008 16.5039 32.6792C16.4784 32.6458 16.4529 32.6124 16.4267 32.5779C15.8137 31.7385 15.4203 30.7663 15.1853 29.7592C15.1766 29.7224 15.1679 29.6856 15.1589 29.6476C15.0218 29.0341 14.9849 28.4306 14.9864 27.8042C14.9865 27.6863 14.9855 27.5685 14.9844 27.4506C14.978 25.6495 15.5379 23.8301 16.7187 22.4499C16.7482 22.4152 16.7776 22.3805 16.808 22.3447C18.6599 20.2225 21.8087 19.5811 24.496 20.129Z" fill="currentColor"></path>
<path d="M104.694 20.908C105.574 21.6515 106.077 22.614 106.437 23.6963C106.459 21.973 106.459 21.973 106.48 20.2149C107.572 20.2149 108.664 20.2149 109.789 20.2149C109.789 24.9947 109.789 29.7745 109.789 34.6992C108.697 34.6992 107.605 34.6992 106.48 34.6992C106.466 33.4794 106.452 32.2596 106.437 31.0029C106.324 31.3007 106.211 31.5986 106.094 31.9055C106.021 32.0648 105.951 32.217 105.868 32.3702C105.848 32.4072 105.829 32.4442 105.808 32.4823C105.209 33.5742 104.3 34.476 103.087 34.8373C101.753 35.2139 100.253 35.0573 99.0387 34.3876C98.0496 33.8193 97.3325 32.998 96.8124 31.9914C96.7988 31.9654 96.7853 31.9394 96.7713 31.9126C95.6286 29.6896 95.6068 26.8199 96.3397 24.4699C96.7004 23.3536 97.2603 22.4077 98.0585 21.5473C98.0812 21.5218 98.1039 21.4962 98.1273 21.4699C99.7523 19.7236 102.824 19.4425 104.694 20.908ZM100.551 23.7393C100.508 23.7823 100.508 23.7823 100.464 23.8262C99.7653 24.5724 99.4162 25.6649 99.3046 26.6619C99.2998 26.7036 99.295 26.7452 99.2901 26.7882C99.1527 28.1854 99.3889 29.8067 100.264 30.9488C100.394 31.105 100.534 31.2479 100.68 31.3897C100.71 31.4214 100.741 31.4531 100.773 31.4857C101.37 32.0652 102.148 32.2769 102.96 32.2665C103.768 32.2412 104.38 31.9147 104.933 31.3467C104.962 31.3185 104.991 31.2902 105.02 31.2611C105.716 30.5291 106.025 29.4019 106.137 28.4241C106.141 28.3845 106.146 28.3449 106.151 28.3041C106.302 26.8249 106.084 25.095 105.148 23.8897C105.092 23.8245 105.035 23.7599 104.976 23.6963C104.948 23.6634 104.92 23.6305 104.89 23.5966C104.436 23.1022 103.746 22.7691 103.073 22.7405C102.051 22.7176 101.268 23.0025 100.551 23.7393Z" fill="currentColor"></path>
<path d="M31.7575 20.2148C32.8777 20.2148 33.9979 20.2148 35.152 20.2148C35.1526 20.487 35.1533 20.7592 35.1539 21.0397C35.1561 21.9401 35.1589 22.8406 35.1621 23.7411C35.1641 24.2869 35.1658 24.8327 35.1669 25.3785C35.1679 25.8545 35.1693 26.3305 35.1713 26.8065C35.1723 27.0583 35.1731 27.3101 35.1734 27.5619C35.1737 27.7994 35.1745 28.0369 35.1758 28.2744C35.1762 28.3611 35.1764 28.4478 35.1763 28.5345C35.1757 29.5151 35.2837 30.4912 35.9765 31.2499C36.5883 31.8183 37.3894 31.9374 38.1902 31.9111C39.2274 31.8514 40.0616 31.3275 40.7594 30.5891C42.0182 29.1422 42.5421 27.0075 42.5515 25.1234C42.5519 25.0701 42.5523 25.0168 42.5528 24.9619C42.5539 24.8171 42.5548 24.6723 42.5557 24.5275C42.5566 24.3757 42.5578 24.2238 42.5589 24.072C42.5611 23.7851 42.563 23.4982 42.5649 23.2112C42.5674 22.8231 42.5702 22.435 42.5731 22.0468C42.5775 21.4362 42.5815 20.8255 42.5856 20.2148C43.7058 20.2148 44.826 20.2148 45.9801 20.2148C45.9801 24.9946 45.9801 29.7744 45.9801 34.6991C44.8883 34.6991 43.7965 34.6991 42.6716 34.6991C42.6574 33.0964 42.6432 31.4936 42.6286 29.8424C42.5435 30.126 42.4584 30.4097 42.3708 30.7019C42.3118 30.8587 42.2536 31.0093 42.1855 31.1613C42.1692 31.1984 42.1528 31.2354 42.136 31.2736C41.7419 32.1557 41.2614 32.9044 40.5661 33.5816C40.5473 33.6029 40.5284 33.6242 40.509 33.6461C39.9921 34.2101 39.2164 34.5812 38.4955 34.8012C38.4619 34.8114 38.4283 34.8217 38.3936 34.8323C37.8734 34.9811 37.355 35.0162 36.8171 35.0134C36.7858 35.0133 36.7545 35.0132 36.7223 35.0131C35.4155 35.0069 34.2609 34.626 33.2963 33.7213C31.7194 32.0643 31.7365 29.6799 31.7444 27.5449C31.7452 27.2865 31.7453 27.028 31.7455 26.7696C31.7459 26.2821 31.7469 25.7946 31.7482 25.3071C31.7497 24.7513 31.7504 24.1955 31.751 23.6397C31.7523 22.4981 31.7547 21.3565 31.7575 20.2148Z" fill="currentColor"></path>
<path d="M111.723 20.2148C118.415 20.2148 118.415 20.2148 119.186 20.3975C119.226 20.4068 119.267 20.416 119.309 20.4256C120.604 20.73 121.861 21.272 122.842 22.1887C122.929 22.2704 123.02 22.3466 123.112 22.4229C124.227 23.3994 124.891 25.039 125 26.4899C125.049 27.4098 125.051 28.3422 124.828 29.2406C124.815 29.296 124.815 29.296 124.801 29.3524C124.601 30.1437 124.276 30.8994 123.797 31.5615C123.771 31.5979 123.771 31.5979 123.744 31.6349C123.295 32.2538 122.751 32.8033 122.121 33.2378C122.096 33.255 122.071 33.2721 122.046 33.2899C119 35.3673 115.256 34.6991 111.723 34.6991C111.723 29.9193 111.723 25.1395 111.723 20.2148ZM115.074 22.4928C115.074 25.7408 115.074 28.9888 115.074 32.3352C117.943 32.3856 117.943 32.3856 120.239 31.0565C120.968 30.288 121.403 29.2573 121.52 28.2091C121.524 28.169 121.529 28.1289 121.534 28.0876C121.667 26.7627 121.475 25.3048 120.66 24.212C120.537 24.0629 120.407 23.9219 120.273 23.7822C120.247 23.7526 120.221 23.723 120.194 23.6925C119.461 22.9 118.377 22.6296 117.352 22.4928C116.6 22.4928 115.849 22.4928 115.074 22.4928Z" fill="currentColor"></path>
<path d="M87.4776 19.9838C87.5359 19.9838 87.5359 19.9838 87.5954 19.9838C89.3729 19.9888 91.1507 20.4802 92.4727 21.7191C92.4973 21.7419 92.5219 21.7646 92.5472 21.7881C94.0322 23.1758 94.668 25.1344 94.7469 27.1313C94.7997 29.3237 94.1096 31.3908 92.5922 32.9894C92.4068 33.1746 92.2078 33.3363 92.0001 33.4956C91.9406 33.5432 91.9406 33.5432 91.8799 33.5918C91.5394 33.8582 91.1791 34.0697 90.797 34.2692C90.7707 34.2831 90.7443 34.2969 90.7172 34.3112C90.2624 34.5474 89.7892 34.7026 89.293 34.828C89.2577 34.8371 89.2223 34.8463 89.1859 34.8557C88.114 35.1208 86.8028 35.1216 85.7266 34.871C85.6885 34.8626 85.6503 34.8543 85.611 34.8458C84.0059 34.491 82.4886 33.6264 81.5672 32.2285C80.3087 30.2396 79.9696 27.8195 80.4775 25.5285C80.6367 24.8521 80.8781 24.2176 81.2149 23.6102C81.2301 23.5828 81.2453 23.5554 81.2609 23.5271C81.7168 22.7147 82.3149 21.9789 83.0626 21.4182C83.0848 21.4012 83.1069 21.3842 83.1298 21.3666C84.0044 20.6968 84.9927 20.2953 86.0704 20.0859C86.1106 20.0778 86.1508 20.0698 86.1922 20.0615C86.6197 19.9853 87.0447 19.9828 87.4776 19.9838ZM85.0821 23.3953C85.0461 23.4244 85.01 23.4535 84.9728 23.4835C84.0428 24.2724 83.556 25.4905 83.4149 26.6814C83.3943 26.9446 83.3958 27.2091 83.3956 27.473C83.3956 27.5047 83.3955 27.5365 83.3955 27.5691C83.3962 28.0512 83.4174 28.5136 83.5352 28.9827C83.5422 29.0121 83.5491 29.0414 83.5562 29.0717C83.7305 29.7965 84.0394 30.4762 84.5235 31.0457C84.5539 31.0831 84.5843 31.1204 84.6157 31.1589C85.2362 31.8903 86.1141 32.3118 87.0587 32.4211C88.1184 32.491 89.0731 32.2475 89.8946 31.5615C89.9371 31.5279 89.9797 31.4942 90.0235 31.4596C90.932 30.6633 91.3943 29.3443 91.4845 28.1661C91.535 26.8563 91.4117 25.6296 90.754 24.4698C90.7297 24.4266 90.7054 24.3834 90.6803 24.3389C90.1577 23.468 89.3236 22.9106 88.3556 22.6514C87.2118 22.4029 85.9886 22.6437 85.0821 23.3953Z" fill="currentColor"></path>
<path d="M80.3984 20C80.3984 20.9928 80.3984 21.9857 80.3984 23.0086C79.9518 23.0511 79.9518 23.0511 79.4961 23.0946C78.6285 23.2607 77.8982 23.575 77.2506 24.1919C77.1758 24.255 77.1758 24.255 77.0898 24.255C77.0788 24.28 77.0678 24.305 77.0564 24.3307C76.9991 24.4357 76.9343 24.5053 76.8508 24.5908C75.9015 25.6421 75.7113 27.0457 75.706 28.4048C75.7056 28.4739 75.7052 28.543 75.7047 28.6122C75.7036 28.7978 75.7027 28.9834 75.7018 29.1691C75.7009 29.3638 75.6997 29.5586 75.6985 29.7533C75.6964 30.1212 75.6945 30.4891 75.6926 30.857C75.6901 31.3547 75.6872 31.8525 75.6844 32.3502C75.68 33.1332 75.676 33.9162 75.6719 34.6991C74.58 34.6991 73.4882 34.6991 72.3633 34.6991C72.3633 29.9193 72.3633 25.1395 72.3633 20.2149C73.4551 20.2149 74.547 20.2149 75.6719 20.2149C75.6861 21.5198 75.7002 22.8246 75.7148 24.1691C75.7999 23.8854 75.885 23.6017 75.9727 23.3095C76.0323 23.1602 76.0892 23.0218 76.1606 22.8797C76.1852 22.8294 76.1852 22.8294 76.2103 22.7782C76.7705 21.6584 77.7418 20.6436 78.9453 20.2253C79.4448 20.0638 79.8576 20 80.3984 20Z" fill="currentColor"></path>
</g>
<defs>
<clipPath id="clip0_437_1119">
<rect width="110" height="15" fill="currentColor" transform="translate(15 20)"></rect>
</clipPath>
</defs>
</svg>