<svg width="100%" height="100%" viewBox="0 0 110 32" fill="none" xmlns="http://www.w3.org/2000/svg">
<g clip-path="url(#clip0_51_1110)">
<path d="M11.85 5.13428V13.8827H3.81279V5.13428H-0.000366211V26.0179H3.81383V17.5534H11.8489V26.0179H15.6641V5.13428H11.85ZM27.8727 19.268C27.8727 20.105 27.5401 20.9078 26.9483 21.4997C26.3564 22.0916 25.5536 22.4241 24.7165 22.4241C23.8795 22.4241 23.0767 22.0916 22.4848 21.4997C21.8929 20.9078 21.5604 20.105 21.5604 19.268V10.3224H17.9423V19.268C17.9423 21.0628 18.6553 22.7841 19.9245 24.0533C21.1936 25.3224 22.915 26.0354 24.7098 26.0354C26.5047 26.0354 28.226 25.3224 29.4952 24.0533C30.7643 22.7841 31.4773 21.0628 31.4773 19.268V10.3224H27.8727V19.268ZM54.6814 11.2442C54.6814 9.40989 55.8943 8.82873 57.2229 8.82873C58.2943 8.82873 59.7085 9.64421 60.6345 10.6331L63.0035 7.83983C61.8205 6.23983 59.4216 5.13428 57.4572 5.13428C53.5315 5.13428 50.6928 7.43312 50.6928 11.2442C50.6928 18.3152 59.3349 16.0711 59.3349 20.0287C59.3349 21.2489 58.1498 22.3265 56.7934 22.3265C54.6536 22.3265 53.9599 21.2809 52.9772 20.1743L50.347 22.9087C52.0296 24.9732 54.1044 26.022 56.5891 26.022C60.3186 26.022 63.3183 23.6953 63.3183 20.0576C63.3183 12.2083 54.6752 14.6476 54.6752 11.2442M108.146 22.6816C106.008 22.6816 105.4 21.7567 105.4 20.3405V14.0695H108.724V10.8922H105.4V6.70021L101.732 8.34666V21.1198C101.732 24.3869 103.986 26.0334 107.077 26.0334C107.562 26.0416 108.047 26.0024 108.524 25.9178L109.419 22.6228C109.015 22.6507 108.552 22.6785 108.146 22.6785M41.6451 10.4267C39.8531 10.4267 38.602 10.9469 37.3921 12.133V5.25918H33.7689V18.0003C33.7689 22.7694 37.2167 26.0375 41.0918 26.0375C45.3901 26.0375 49.1712 22.7116 49.1712 18.2336C49.1712 13.8114 45.6915 10.4298 41.6451 10.4298M41.6223 22.3905C41.0823 22.3905 40.5476 22.2842 40.0487 22.0775C39.5499 21.8709 39.0966 21.568 38.7147 21.1862C38.3329 20.8043 38.03 20.351 37.8234 19.8521C37.6167 19.3532 37.5103 18.8185 37.5103 18.2785C37.5103 17.7385 37.6167 17.2038 37.8234 16.7049C38.03 16.206 38.3329 15.7527 38.7147 15.3709C39.0966 14.9891 39.5499 14.6862 40.0487 14.4795C40.5476 14.2729 41.0823 14.1665 41.6223 14.1665C42.7129 14.1665 43.7588 14.5998 44.53 15.3709C45.3011 16.1421 45.7343 17.188 45.7343 18.2785C45.7343 19.3691 45.3011 20.415 44.53 21.1862C43.7588 21.9573 42.7129 22.3905 41.6223 22.3905ZM80.9947 18.0437C80.9947 13.5575 77.2218 10.2398 72.9152 10.2398C69.0412 10.2398 65.5924 13.5069 65.5924 18.277V31.0254H69.2156V24.1423C70.4234 25.3263 71.6765 25.8486 73.4665 25.8486C77.5129 25.8486 80.9947 22.4669 80.9947 18.0437ZM77.5635 17.9983C77.5635 19.0888 77.1303 20.1348 76.3591 20.9059C75.588 21.677 74.5421 22.1103 73.4515 22.1103C72.3609 22.1103 71.315 21.677 70.5439 20.9059C69.7727 20.1348 69.3395 19.0888 69.3395 17.9983C69.3395 16.9077 69.7727 15.8618 70.5439 15.0907C71.315 14.3195 72.3609 13.8863 73.4515 13.8863C74.5421 13.8863 75.588 14.3195 76.3591 15.0907C77.1303 15.8618 77.5635 16.9077 77.5635 17.9983Z" fill="white"></path>
<path d="M92.7026 10.0644V6.42361C93.1837 6.19875 93.5911 5.84187 93.8773 5.39451C94.1635 4.94715 94.3167 4.4277 94.3191 3.89664V3.81303C94.3191 2.26464 93.0639 1.00941 91.5155 1.00941H91.4319C90.6883 1.00941 89.9752 1.30479 89.4494 1.83057C88.9237 2.35635 88.6283 3.06946 88.6283 3.81303V3.89664C88.6307 4.4277 88.784 4.94715 89.0702 5.39451C89.3563 5.84187 89.7637 6.19875 90.2448 6.42361V10.0644C88.862 10.2761 87.5598 10.8494 86.4698 11.7263L76.4848 3.94929C76.556 3.69225 76.5932 3.42799 76.5973 3.1627C76.5986 2.53788 76.4144 1.92674 76.0683 1.40657C75.7221 0.886395 75.2295 0.48057 74.6527 0.240424C74.0758 0.000277996 73.4407 -0.0633998 72.8277 0.0574451C72.2147 0.17829 71.6513 0.478228 71.2087 0.919321C70.7662 1.36041 70.4644 1.92284 70.3416 2.53547C70.2187 3.14809 70.2803 3.78339 70.5186 4.361C70.7568 4.93861 71.161 5.43259 71.6801 5.78044C72.1991 6.1283 72.8097 6.3144 73.4345 6.31522C73.9811 6.31265 74.5175 6.16671 74.9901 5.89199L84.8224 13.5431C83.9391 14.8775 83.4783 16.447 83.5 18.047C83.5217 19.6471 84.025 21.2035 84.9442 22.5134L81.9537 25.5049C81.712 25.4276 81.4601 25.3865 81.2064 25.3831C80.6935 25.3835 80.1922 25.5359 79.7659 25.8211C79.3397 26.1063 79.0075 26.5115 78.8114 26.9854C78.6153 27.4593 78.5641 27.9807 78.6643 28.4837C78.7645 28.9867 79.0115 29.4488 79.3741 29.8114C79.7368 30.1741 80.1988 30.4211 80.7018 30.5213C81.2048 30.6214 81.7263 30.5702 82.2002 30.3742C82.6741 30.1781 83.0793 29.8459 83.3644 29.4196C83.6496 28.9934 83.8021 28.4921 83.8025 27.9792C83.7992 27.7254 83.7581 27.4736 83.6807 27.2319L86.6391 24.2724C87.6039 25.0151 88.7258 25.5271 89.919 25.7693C91.1122 26.0114 92.345 25.9772 93.5229 25.6693C94.7008 25.3614 95.7927 24.788 96.7147 23.9929C97.6368 23.1979 98.3647 22.2023 98.8426 21.0825C99.3205 19.9627 99.5357 18.7484 99.4718 17.5326C99.4079 16.3168 99.0665 15.1317 98.4739 14.0682C97.8812 13.0046 97.053 12.0909 96.0526 11.3969C95.0523 10.7029 93.9063 10.2471 92.7026 10.0644ZM91.4763 22.0386C90.9295 22.0536 90.3853 21.9589 89.8758 21.7601C89.3662 21.5612 88.9017 21.2623 88.5097 20.8809C88.1176 20.4995 87.806 20.0434 87.5932 19.5395C87.3804 19.0356 87.2708 18.4942 87.2708 17.9472C87.2708 17.4003 87.3804 16.8588 87.5932 16.355C87.806 15.8511 88.1176 15.395 88.5097 15.0136C88.9017 14.6322 89.3662 14.3332 89.8758 14.1344C90.3853 13.9355 90.9295 13.8408 91.4763 13.8559C92.536 13.893 93.5399 14.3399 94.2767 15.1025C95.0134 15.8651 95.4254 16.8839 95.426 17.9442C95.4265 19.0045 95.0155 20.0237 94.2795 20.7871C93.5436 21.5504 92.5401 21.9983 91.4804 22.0365" fill="white"></path>
</g>
<defs>
<clipPath id="clip0_51_1110">
<rect width="109.419" height="32" fill="white" transform="translate(-0.000488281)"></rect>
</clipPath>
</defs>
</svg>