<svg xmlns="http://www.w3.org/2000/svg" width="100%" height="100%" viewBox="0 0 95 32" fill="none" preserveAspectRatio="xMidYMid meet" aria-hidden="true" role="img">
<mask id="mask0_51_1117" style="mask-type:luminance" maskUnits="userSpaceOnUse" x="-1" y="0" width="39" height="32">
<path d="M37.3388 0H-0.00134277V32H37.3388V0Z" fill="white"></path>
</mask>
<g mask="url(#mask0_51_1117)">
<path d="M35.8697 24.6707C33.8806 25.7112 23.5573 29.9573 21.3336 31.1227C19.1098 32.2882 17.9188 32.255 16.1796 31.4237C14.4404 30.5923 3.49232 26.1396 1.50826 25.191C0.508577 24.7217 -0.00146484 24.3213 -0.00146484 23.9465V20.1696C-0.00146484 20.1696 14.3001 17.066 16.608 16.2295C18.916 15.3931 19.7142 15.3727 21.6753 16.0918C23.6364 16.811 35.3929 18.9327 37.3336 19.6366V23.3599C37.3336 23.7475 36.8873 24.125 35.8697 24.6682V24.6707Z" fill="#E6E6E6"></path>
<path d="M35.8697 20.9117C33.8806 21.9471 23.5573 26.1932 21.3335 27.3383C19.1098 28.4833 17.9188 28.4731 16.1796 27.6443C14.4403 26.8155 3.4923 22.3628 1.50824 21.4218C-0.475821 20.4808 -0.514074 19.8228 1.43173 19.0628C3.37754 18.3029 14.3001 14.0262 16.608 13.1846C18.916 12.343 19.7142 12.3252 21.6753 13.0469C23.6364 13.7686 33.9163 17.8515 35.8468 18.563C37.7773 19.2745 37.8665 19.8585 35.8697 20.8913V20.9117Z" fill="white"></path>
<path d="M35.8697 18.5196C33.8806 19.5575 23.5573 23.8011 21.3336 24.9461C19.1098 26.0912 17.929 26.081 16.1898 25.247C14.4506 24.4131 3.49232 19.986 1.50826 19.0398C0.508577 18.5655 -0.00146484 18.1677 -0.00146484 17.7902V14.0261C-0.00146484 14.0261 14.3001 10.9123 16.608 10.0759C18.916 9.23939 19.7142 9.21644 21.6753 9.9458C23.6364 10.6752 35.3929 12.7765 37.3336 13.4855V17.2088C37.3336 17.5964 36.8873 17.9841 35.8697 18.5196Z" fill="#E6E6E6"></path>
<path d="M35.8699 14.7428C33.8807 15.7833 23.5575 20.0268 21.3337 21.1719C19.1099 22.3169 17.919 22.3093 16.1797 21.4779C14.4405 20.6465 3.49243 16.2117 1.50837 15.263C-0.475693 14.3144 -0.511396 13.6692 1.43186 12.9092C3.37512 12.1492 14.3002 7.86233 16.6081 7.04372C18.9161 6.2251 19.7143 6.1741 21.6754 6.8856C23.6365 7.59711 33.9164 11.7157 35.8469 12.4068C37.7774 13.0979 37.8667 13.7049 35.8699 14.7351V14.7428Z" fill="white"></path>
<path d="M35.8697 12.1364C33.8806 13.1769 23.5573 17.423 21.3336 18.5655C19.1098 19.708 17.929 19.7003 16.1898 18.8715C14.4506 18.0427 3.49232 13.6028 1.50826 12.6566C0.508577 12.1874 -0.00146484 11.787 -0.00146484 11.4096V7.63273C-0.00146484 7.63273 14.3001 4.52913 16.608 3.69521C18.916 2.86129 19.7142 2.83579 21.6753 3.55495C23.6364 4.27411 35.3878 6.39588 37.3285 7.10484V10.8281C37.3336 11.2209 36.8873 11.6034 35.8697 12.1364Z" fill="#E6E6E6"></path>
<path d="M35.8697 8.36469C33.8806 9.38477 23.5573 13.6564 21.3335 14.7912C19.1098 15.9261 17.9188 15.9235 16.1796 15.0972C14.4403 14.271 3.4923 9.82596 1.50824 8.88238C-0.475821 7.93881 -0.514074 7.2834 1.43173 6.52344C3.37754 5.76348 14.3001 1.47913 16.608 0.647764C18.916 -0.183603 19.7142 -0.209105 21.6753 0.510053C23.6364 1.22921 33.9163 5.31719 35.8468 6.02615C37.7773 6.73511 37.8665 7.32421 35.8697 8.35704V8.36469Z" fill="white"></path>
</g>
<path d="M19.2526 3.00162L21.7161 2.19321L21.048 3.78964L23.5548 4.72811L20.3237 5.06474L19.5969 6.80908L18.4289 4.86327L14.6929 4.52665L17.4828 3.52187L16.6438 1.97644L19.2526 3.00162Z" fill="url(#paint0_linear_51_1117)" fill-opacity="0.4"></path>
<path d="M19.408 13.1846L13.3691 10.6778L22.0194 9.34912L19.408 13.1846Z" fill="url(#paint1_linear_51_1117)" fill-opacity="0.4"></path>
<path d="M11.0357 5.69714C13.586 5.69714 15.6593 6.50046 15.6593 7.48229C15.6593 8.46412 13.5809 9.26743 11.0357 9.26743C8.49064 9.26743 6.40967 8.46412 6.40967 7.48229C6.40967 6.50046 8.48299 5.69714 11.0357 5.69714Z" fill="url(#paint2_linear_51_1117)" fill-opacity="0.4"></path>
<path d="M27.3827 5.20496L32.501 7.22727L27.3878 9.24958L27.3827 5.20496Z" fill="#EDEDED"></path>
<path d="M27.3826 5.20496L27.3877 9.24958L26.8318 9.46635L21.7161 7.44404L27.3826 5.20496Z" fill="#CCCCCC"></path>
<path d="M49.2174 10.5578C49.6589 10.0762 50.2014 9.69824 50.8062 9.45106C51.3954 9.19841 52.027 9.05912 52.6679 9.04047C52.8971 9.01964 53.1282 9.04526 53.3473 9.11581C53.5664 9.18636 53.769 9.30038 53.943 9.45106C54.0719 9.57582 54.1731 9.72639 54.2399 9.89295C54.3067 10.0595 54.3376 10.2383 54.3306 10.4176C54.3331 10.7781 54.1939 11.1252 53.943 11.3841C53.8218 11.5195 53.6725 11.6268 53.5056 11.6986C53.3387 11.7704 53.1581 11.805 52.9764 11.7998C51.3851 11.9401 49.1766 13.5263 49.1766 15.6812V20.5725C49.1663 20.9356 49.0173 21.2809 48.7602 21.5376C48.5031 21.7942 48.1575 21.9425 47.7944 21.9522C47.6086 21.9587 47.4237 21.9239 47.253 21.8503C47.0823 21.7766 46.9302 21.666 46.8075 21.5263C46.6782 21.4004 46.5752 21.2502 46.5043 21.0843C46.4334 20.9184 46.396 20.7402 46.3943 20.5598V10.3589C46.3959 10.1785 46.4332 10.0002 46.5041 9.83428C46.575 9.66838 46.6781 9.51819 46.8075 9.3924C47.1102 9.17398 47.4722 9.053 47.8454 9.04557C48.2086 9.05273 48.555 9.20004 48.8122 9.45669C49.0693 9.71335 49.2173 10.0595 49.2251 10.4227L49.2174 10.5578Z" fill="white"></path>
<path d="M65.9748 15.0462C65.9764 15.3795 65.8537 15.7014 65.6305 15.949C65.3659 16.1945 65.0243 16.3405 64.664 16.3621H56.5034C56.5804 17.0103 56.8959 17.6066 57.3883 18.0351C58.0191 18.7134 58.8822 19.1295 59.8059 19.2005C60.2736 19.28 60.7524 19.2659 61.2147 19.1591C61.677 19.0523 62.1134 18.8549 62.4989 18.5782C62.6343 18.4417 62.7963 18.3344 62.9748 18.2629C63.1533 18.1914 63.3446 18.1573 63.5368 18.1626C63.702 18.1548 63.8669 18.1816 64.021 18.2414C64.1752 18.3011 64.3152 18.3924 64.4319 18.5094C64.541 18.6094 64.6292 18.73 64.6915 18.8641C64.7539 18.9983 64.7892 19.1435 64.7953 19.2913C64.8015 19.4391 64.7784 19.5867 64.7274 19.7256C64.6765 19.8645 64.5986 19.992 64.4983 20.1007C64.4778 20.1237 64.4549 20.1441 64.4319 20.167C63.8298 20.7245 63.1237 21.1578 62.354 21.4422C61.5843 21.7266 60.7661 21.8566 59.9461 21.8247C59.1043 21.843 58.2684 21.6798 57.4952 21.3462C56.722 21.0127 56.0298 20.5166 55.4654 19.8916C54.2958 18.6563 53.6316 17.0276 53.6038 15.3267C53.5861 14.4798 53.7422 13.6383 54.0624 12.854C54.3825 12.0698 54.8601 11.3595 55.4654 10.767C56.0172 10.1658 56.6904 9.68879 57.4404 9.36742C58.1905 9.04604 59.0002 8.88766 59.8161 8.90276C60.6095 8.87248 61.4003 9.01095 62.1362 9.30901C62.8721 9.60707 63.5364 10.0579 64.0851 10.6318C65.2556 11.7532 65.9504 13.2816 66.0258 14.9009V15.036L65.9748 15.0462ZM59.8288 11.3867C58.9705 11.4013 58.1454 11.7203 57.5005 12.2869C56.9511 12.7487 56.5641 13.3743 56.3962 14.072H63.6465C63.4433 13.3709 63.0035 12.7617 62.402 12.3481C61.676 11.7628 60.7832 11.4227 59.8518 11.3765" fill="white"></path>
<path d="M78.9683 20.4323C78.9587 20.7954 78.8103 21.141 78.5537 21.3981C78.2971 21.6552 77.9517 21.8042 77.5886 21.8145C77.2703 21.8018 76.9643 21.6875 76.7156 21.4883C76.4668 21.2892 76.2884 21.0156 76.2064 20.7077C75.1789 21.4434 73.9431 21.8312 72.6795 21.8145C71.8543 21.8238 71.0361 21.663 70.2757 21.3423C69.5154 21.0216 68.8292 20.5478 68.26 19.9503C67.664 19.3539 67.1969 18.6414 66.8877 17.857C66.5784 17.0727 66.4335 16.2332 66.4621 15.3905C66.4511 13.6964 67.0953 12.0636 68.26 10.8333C68.8252 10.2253 69.5089 9.73953 70.269 9.40576C71.029 9.072 71.8494 8.89736 72.6795 8.89259C73.9194 8.87617 75.1309 9.26477 76.1299 9.99938V5.17184C76.1251 4.99024 76.1598 4.80977 76.2316 4.6429C76.3033 4.47602 76.4105 4.32672 76.5456 4.20531C76.6729 4.0742 76.825 3.96988 76.9932 3.89849C77.1614 3.8271 77.3422 3.79008 77.5249 3.78962C77.7065 3.78481 77.8869 3.81949 78.0538 3.89126C78.2207 3.96303 78.37 4.07018 78.4914 4.20531C78.6211 4.33097 78.7246 4.48108 78.796 4.64698C78.8673 4.81287 78.9051 4.99126 78.9071 5.17184V20.4323H78.9683ZM72.7585 19.0501C73.218 19.0595 73.6737 18.9654 74.0917 18.7747C74.5098 18.584 74.8796 18.3015 75.1736 17.9484C75.8343 17.2638 76.2035 16.3496 76.2035 15.3982C76.2035 14.4468 75.8343 13.5325 75.1736 12.848C74.87 12.5051 74.4987 12.2288 74.083 12.0365C73.6674 11.8443 73.2164 11.7403 72.7585 11.731C72.2973 11.715 71.8387 11.8067 71.419 11.9988C70.9994 12.1909 70.6303 12.4782 70.3409 12.8378C69.6803 13.5223 69.311 14.4366 69.311 15.388C69.311 16.3394 69.6803 17.2536 70.3409 17.9382C70.6409 18.285 71.0122 18.563 71.4294 18.7531C71.8466 18.9433 72.3 19.0411 72.7585 19.0399" fill="white"></path>
<path d="M83.0511 5.17177V5.72771C83.0571 5.92284 83.0223 6.11708 82.949 6.298C82.8757 6.47893 82.7654 6.64255 82.6252 6.7784C82.5002 6.90464 82.3485 7.00114 82.1812 7.06074C82.0138 7.12034 81.8352 7.14151 81.6586 7.12268C81.4777 7.12879 81.2977 7.09519 81.1311 7.02426C80.9646 6.95333 80.8156 6.84677 80.6947 6.71209C80.5575 6.57768 80.4497 6.41626 80.3781 6.23803C80.3066 6.0598 80.2728 5.86866 80.279 5.67671V5.16667C80.2798 4.98591 80.3171 4.80718 80.3885 4.64112C80.4599 4.47507 80.564 4.32509 80.6947 4.20014C80.8198 4.0704 80.9694 3.96684 81.1349 3.89548C81.3004 3.82412 81.4784 3.78638 81.6586 3.78446C81.8404 3.78163 82.0207 3.81772 82.1874 3.89029C82.3541 3.96287 82.5034 4.07025 82.6252 4.20524C82.762 4.32572 82.8707 4.47466 82.9439 4.64163C83.017 4.80859 83.0527 4.98954 83.0485 5.17177M80.7202 9.38726C80.8451 9.25665 80.9951 9.15253 81.1611 9.08111C81.3272 9.00969 81.5059 8.97244 81.6867 8.97158C81.8684 8.96555 82.0493 8.99967 82.2164 9.07152C82.3834 9.14337 82.5326 9.25118 82.6532 9.38726C82.7843 9.52197 82.8869 9.68174 82.9548 9.85702C83.0227 10.0323 83.0546 10.2195 83.0485 10.4073V20.5087C83.0594 20.6918 83.0266 20.8749 82.9531 21.0429C82.8795 21.2109 82.7671 21.3591 82.6252 21.4752C82.5001 21.605 82.3504 21.7085 82.1849 21.7799C82.0194 21.8513 81.8414 21.889 81.6612 21.8909C81.4795 21.8961 81.299 21.8616 81.132 21.7898C80.9651 21.718 80.8158 21.6106 80.6947 21.4752C80.564 21.3503 80.4599 21.2003 80.3885 21.0343C80.3171 20.8682 80.2798 20.6895 80.279 20.5087V10.4175C80.2742 10.228 80.3086 10.0396 80.3802 9.86404C80.4517 9.68849 80.5588 9.52964 80.6947 9.39746" fill="white"></path>
<path d="M92.8465 10.3538C93.1294 10.5487 93.3274 10.8442 93.3999 11.1801C93.4556 11.5313 93.4078 11.8911 93.2622 12.2155C93.0642 12.496 92.7686 12.6924 92.4333 12.7663C92.0737 12.8326 91.7023 12.7587 91.3954 12.5597C90.4289 11.94 89.674 11.5958 89.0492 11.5958C88.4974 11.5602 87.952 11.7311 87.5191 12.0752C87.2437 12.2843 87.106 12.422 87.106 12.5597C87.0868 12.6799 87.1112 12.8029 87.1748 12.9066C87.2533 12.9916 87.3467 13.0616 87.4502 13.1131C88.0135 13.4671 88.6539 13.6797 89.317 13.7328C90.1757 13.8744 91.0113 14.1318 91.8009 14.4979C92.4971 14.7888 93.0792 15.2992 93.4585 15.9515C93.7049 16.3316 93.8735 16.7567 93.9548 17.2023C94.0361 17.6479 94.0284 18.1051 93.9321 18.5477C93.8359 18.9903 93.653 19.4095 93.394 19.781C93.135 20.1526 92.8051 20.4693 92.4231 20.7127C91.4571 21.4032 90.2952 21.7661 89.1079 21.7481C87.5191 21.7481 86.0017 21.1284 84.5507 19.963C84.2867 19.7305 84.1148 19.4111 84.0661 19.0628C84.0422 18.8044 84.0947 18.5447 84.2169 18.3159C84.3392 18.087 84.5259 17.8991 84.7539 17.7753C84.9819 17.6515 85.2413 17.5973 85.4998 17.6195C85.7583 17.6416 86.0046 17.7391 86.2083 17.8999C86.9706 18.6249 87.9872 19.0214 89.039 19.0041C89.6508 19.0249 90.2539 18.8557 90.7655 18.5196C91.0409 18.2441 91.2501 18.0376 91.2501 17.8285C91.2501 17.6193 91.25 17.553 91.1812 17.4842C91.1812 17.4128 91.0409 17.2776 90.8344 17.2088C90.2039 16.819 89.4967 16.5702 88.761 16.4794C87.9408 16.3612 87.1471 16.1024 86.4149 15.7143C85.7443 15.3872 85.1723 14.8883 84.7572 14.2684C84.4853 13.7832 84.3438 13.2358 84.3466 12.6796C84.3456 12.1187 84.4836 11.5663 84.7484 11.0718C85.0132 10.5774 85.3965 10.1563 85.864 9.84632C86.7994 9.20868 87.907 8.8715 89.039 8.87979C90.2019 8.95119 91.4566 9.43063 92.8363 10.3309" fill="white"></path>
<defs>
<linearGradient id="paint0_linear_51_1117" x1="14.6929" y1="6.80908" x2="23.5551" y2="6.8454" gradientUnits="userSpaceOnUse">
<stop stop-color="#FF7979"></stop>
<stop offset="0.125" stop-color="#FDB48C"></stop>
<stop offset="0.25" stop-color="#FFF08E"></stop>
<stop offset="0.375" stop-color="#AAFF88"></stop>
<stop offset="0.5" stop-color="#99E9FF"></stop>
<stop offset="0.625" stop-color="#99BAFF"></stop>
<stop offset="0.75" stop-color="#889DFF"></stop>
<stop offset="0.875" stop-color="#C780FF"></stop>
<stop offset="1" stop-color="#FF97FE"></stop>
</linearGradient>
<linearGradient id="paint1_linear_51_1117" x1="13.3691" y1="13.1846" x2="22.0196" y2="13.2282" gradientUnits="userSpaceOnUse">
<stop stop-color="#FF7979"></stop>
<stop offset="0.125" stop-color="#FDB48C"></stop>
<stop offset="0.25" stop-color="#FFF08E"></stop>
<stop offset="0.375" stop-color="#AAFF88"></stop>
<stop offset="0.5" stop-color="#99E9FF"></stop>
<stop offset="0.625" stop-color="#99BAFF"></stop>
<stop offset="0.75" stop-color="#889DFF"></stop>
<stop offset="0.875" stop-color="#C780FF"></stop>
<stop offset="1" stop-color="#FF97FE"></stop>
</linearGradient>
<linearGradient id="paint2_linear_51_1117" x1="6.40967" y1="9.26743" x2="15.6593" y2="9.32098" gradientUnits="userSpaceOnUse">
<stop stop-color="#FF7979"></stop>
<stop offset="0.125" stop-color="#FDB48C"></stop>
<stop offset="0.25" stop-color="#FFF08E"></stop>
<stop offset="0.375" stop-color="#AAFF88"></stop>
<stop offset="0.5" stop-color="#99E9FF"></stop>
<stop offset="0.625" stop-color="#99BAFF"></stop>
<stop offset="0.75" stop-color="#889DFF"></stop>
<stop offset="0.875" stop-color="#C780FF"></stop>
<stop offset="1" stop-color="#FF97FE"></stop>
</linearGradient>
</defs>
</svg>