<svg xmlns="http://www.w3.org/2000/svg" width="100%" height="100%" viewBox="0 0 113 32" fill="none" preserveAspectRatio="xMidYMid meet" aria-hidden="true" role="img">
<g clip-path="url(#clip0_51_1096)">
<path d="M24.3283 6.0608C24.3065 5.90185 24.1676 5.81367 24.0524 5.80407C23.938 5.79447 21.6973 5.76042 21.6973 5.76042C21.6973 5.76042 19.8233 3.94059 19.6381 3.75546C19.4531 3.57034 19.0915 3.62622 18.9509 3.66814C18.9492 3.66902 18.599 3.7773 18.0096 3.9598C17.9109 3.6402 17.7659 3.24724 17.559 2.85254C16.8919 1.57936 15.9147 0.906098 14.7341 0.904357C14.7323 0.904357 14.7314 0.904357 14.7297 0.904357C14.6476 0.904357 14.5664 0.912215 14.4844 0.919197C14.4494 0.877283 14.4145 0.836244 14.3778 0.796071C13.8635 0.245936 13.2042 -0.0221472 12.4139 0.0014301C10.8892 0.0450918 9.3707 1.14624 8.13944 3.10228C7.27318 4.4785 6.61388 6.20753 6.42702 7.54618C4.67617 8.08845 3.45189 8.46741 3.42482 8.47617C2.54111 8.75384 2.51317 8.78091 2.3979 9.61401C2.31233 10.2436 0 28.124 0 28.124L19.3779 31.4754L27.7767 29.3875C27.7767 29.3875 24.3501 6.21975 24.3283 6.0608ZM17.0394 4.26019C16.5932 4.39816 16.0858 4.55535 15.5357 4.72563C15.5244 3.95369 15.4327 2.87961 15.0729 1.95136C16.2299 2.17054 16.7993 3.47952 17.0394 4.26019ZM14.5219 5.03999C13.5063 5.35433 12.3982 5.69752 11.2866 6.0416C11.5992 4.84439 12.1921 3.65242 12.9204 2.87088C13.1911 2.58009 13.57 2.25612 14.0189 2.07099C14.4407 2.95121 14.5324 4.19732 14.5219 5.03999ZM12.4444 1.01613C12.8025 1.00827 13.1037 1.08686 13.3614 1.25627C12.9492 1.47021 12.551 1.77759 12.1773 2.1784C11.2088 3.21755 10.4666 4.83042 10.1705 6.38652C9.24753 6.67205 8.3446 6.95239 7.51329 7.20913C8.03814 4.75969 10.0911 1.08424 12.4444 1.01613Z" fill="currentColor"></path>
<path d="M24.053 5.80508C23.9386 5.79548 21.6979 5.76143 21.6979 5.76143C21.6979 5.76143 19.8239 3.9416 19.6388 3.75647C19.5698 3.68748 19.4764 3.65168 19.3785 3.63684L19.3794 31.4747L27.7773 29.3877C27.7773 29.3877 24.3508 6.22076 24.3289 6.06181C24.3071 5.90286 24.1674 5.81468 24.053 5.80508Z" fill="currentColor"></path>
<path d="M14.7234 10.1231L13.748 13.7723C13.748 13.7723 12.66 13.2772 11.3702 13.3584C9.47874 13.478 9.45865 14.6708 9.4779 14.9704C9.58093 16.6024 13.8746 16.9587 14.1156 20.7817C14.3051 23.7892 12.5202 25.8465 9.94856 26.0089C6.86166 26.2036 5.16235 24.3829 5.16235 24.3829L5.81642 21.6008C5.81642 21.6008 7.52705 22.8915 8.89629 22.805C9.7905 22.7483 10.1101 22.0209 10.0778 21.5065C9.94332 19.3776 6.44687 19.5033 6.22597 16.0051C6.03995 13.0615 7.97332 10.0785 12.239 9.80956C13.8825 9.7039 14.7234 10.1231 14.7234 10.1231Z" fill="url(#paint0_linear_51_1096)" fill-opacity="0.6"></path>
<path d="M38.8366 17.7645C37.8708 17.2405 37.3745 16.7988 37.3745 16.1916C37.3745 15.4191 38.0639 14.9228 39.1406 14.9228C40.3938 14.9228 41.5128 15.4468 41.5128 15.4468L42.3954 12.7428C42.3954 12.7428 41.5838 12.1079 39.1951 12.1079C35.8709 12.1079 33.5671 14.0116 33.5671 16.6879C33.5671 18.2053 34.6428 19.3642 36.0779 20.1913C37.2368 20.853 37.6508 21.3225 37.6508 22.0119C37.6508 22.7291 37.0714 23.3085 35.9957 23.3085C34.3925 23.3085 32.8785 22.4805 32.8785 22.4805L31.9406 25.1845C31.9406 25.1845 33.3393 26.1225 35.6925 26.1225C39.1137 26.1225 41.5691 24.4396 41.5691 21.4047C41.5683 19.7782 40.3271 18.6193 38.8366 17.7645Z" fill="currentColor"></path>
<path d="M52.4657 12.081C50.7827 12.081 49.4584 12.8813 48.4382 14.0947L48.3827 14.067L49.8447 6.42529H46.0373L42.3407 25.8747H46.1481L47.417 19.2264C47.9133 16.7156 49.2098 15.1713 50.4242 15.1713C51.279 15.1713 51.6107 15.7507 51.6107 16.5787C51.6107 17.1027 51.5553 17.7376 51.4453 18.2616L50.011 25.8756H53.8186L55.3079 18.013C55.4737 17.185 55.5844 16.1925 55.5844 15.5299C55.5828 13.3776 54.4518 12.081 52.4657 12.081Z" fill="currentColor"></path>
<path d="M64.1902 12.0811C59.61 12.0811 56.5763 16.2194 56.5763 20.8262C56.5763 23.7779 58.3966 26.1502 61.818 26.1502C66.3148 26.1502 69.3495 22.1228 69.3495 17.4051C69.3495 14.6742 67.749 12.0811 64.1902 12.0811ZM62.3143 23.2271C61.0175 23.2271 60.4656 22.1237 60.4656 20.7439C60.4656 18.5648 61.5971 15.006 63.6661 15.006C65.018 15.006 65.4587 16.1648 65.4587 17.296C65.4587 19.6405 64.3287 23.2271 62.3143 23.2271Z" fill="currentColor"></path>
<path d="M79.0882 12.0811C76.5183 12.0811 75.0599 14.3433 75.0599 14.3433H75.0053L75.2262 12.3019H71.8604C71.6952 13.6816 71.3909 15.7776 71.0882 17.3505L68.4396 31.2819H72.247L73.2947 25.6539H73.3781C73.3781 25.6539 74.1592 26.1502 75.6128 26.1502C80.0818 26.1502 83.0059 21.5711 83.0059 16.9357C83.0059 14.3711 81.8743 12.0811 79.0882 12.0811ZM75.4465 23.2816C74.4582 23.2816 73.8733 22.7299 73.8733 22.7299L74.508 19.1711C74.9497 16.7988 76.1909 15.2259 77.5155 15.2259C78.6743 15.2259 79.0326 16.3016 79.0326 17.3228C79.0326 19.7782 77.5706 23.2816 75.4465 23.2816Z" fill="currentColor"></path>
<path d="M88.4404 6.61865C87.227 6.61865 86.2612 7.58437 86.2612 8.8255C86.2612 9.95667 86.9783 10.7292 88.0543 10.7292H88.1094C89.296 10.7292 90.3163 9.92892 90.3441 8.52239C90.3441 7.41891 89.5992 6.61865 88.4404 6.61865Z" fill="currentColor"></path>
<path d="M83.1168 25.8749H86.9233L89.5173 12.3851H85.6821L83.1168 25.8749Z" fill="currentColor"></path>
<path d="M99.2005 12.3574H96.5519L96.6893 11.7226C96.9102 10.426 97.6829 9.26714 98.9519 9.26714C99.6291 9.26714 100.165 9.46029 100.165 9.46029L100.91 6.48088C100.91 6.48088 100.248 6.15002 98.8407 6.15002C97.4888 6.15002 96.138 6.53628 95.1166 7.41885C93.8198 8.52233 93.2129 10.122 92.9097 11.7226L92.8 12.3574H91.0337L90.4819 15.2269H92.2482L90.2343 25.8758H94.0417L96.0556 15.2269H98.6765L99.2005 12.3574Z" fill="currentColor"></path>
<path d="M108.359 12.3852C108.359 12.3852 105.979 18.3812 104.911 21.6543H104.855C104.783 20.6003 103.917 12.3852 103.917 12.3852H99.9165L102.207 24.7714C102.263 25.0469 102.235 25.2132 102.125 25.4063C101.682 26.2612 100.938 27.0892 100.055 27.6963C99.3379 28.2203 98.5379 28.5511 97.9037 28.772L98.9518 32C99.7245 31.8346 101.324 31.1997 102.676 29.9309C104.414 28.3034 106.014 25.7926 107.669 22.3714L112.331 12.3843H108.359V12.3852Z" fill="currentColor"></path>
</g>
<defs>
<linearGradient id="paint0_linear_51_1096" x1="5.16235" y1="26.0235" x2="14.7238" y2="26.0361" gradientUnits="userSpaceOnUse">
<stop stop-color="#FF7979"></stop>
<stop offset="0.125" stop-color="#FDB48C"></stop>
<stop offset="0.25" stop-color="#FFF08E"></stop>
<stop offset="0.375" stop-color="#AAFF88"></stop>
<stop offset="0.5" stop-color="#99E9FF"></stop>
<stop offset="0.625" stop-color="#99BAFF"></stop>
<stop offset="0.75" stop-color="#889DFF"></stop>
<stop offset="0.875" stop-color="#C780FF"></stop>
<stop offset="1" stop-color="#FF97FE"></stop>
</linearGradient>
<clipPath id="clip0_51_1096">
<rect width="112.787" height="32" fill="currentColor"></rect>
</clipPath>
</defs>
</svg>