<svg xmlns="http://www.w3.org/2000/svg" width="100%" height="100%" viewBox="0 0 64 90" fill="none">
  <g clip-path="url(#clip0_308_626)">
    <g filter="url(#filter0_i_308_626)">
      <path d="M33.1103 27.4641H13.5996V15.0369C18.4876 15.0369 22.5058 14.5398 25.654 13.5456C28.885 12.5515 31.4119 10.9773 33.2346 8.8233C35.0572 6.5864 36.2585 3.6453 36.8384 0H49.6384V89.6H33.1103V27.4641Z" fill="url(#paint0_radial_308_626)"></path>
      <path d="M33.1103 27.4641H13.5996V15.0369C18.4876 15.0369 22.5058 14.5398 25.654 13.5456C28.885 12.5515 31.4119 10.9773 33.2346 8.8233C35.0572 6.5864 36.2585 3.6453 36.8384 0H49.6384V89.6H33.1103V27.4641Z" fill="#0066FF" fill-opacity="0.26"></path>
    </g>
    <path d="M33.1103 27.4641H13.5996V15.0369C18.4876 15.0369 22.5058 14.5398 25.654 13.5456C28.885 12.5515 31.4119 10.9773 33.2346 8.8233C35.0572 6.5864 36.2585 3.6453 36.8384 0H49.6384V89.6H33.1103V27.4641Z" stroke="#CDC400" style="mix-blend-mode:color-dodge"></path>
  </g>
  <defs>
    <filter id="filter0_i_308_626" x="13.0996" y="-0.5" width="37.0391" height="94.6" filterUnits="userSpaceOnUse" color-interpolation-filters="sRGB">
      <feFlood flood-opacity="0" result="BackgroundImageFix"></feFlood>
      <feBlend mode="normal" in="SourceGraphic" in2="BackgroundImageFix" result="shape"></feBlend>
      <feColorMatrix in="SourceAlpha" type="matrix" values="0 0 0 0 0 0 0 0 0 0 0 0 0 0 0 0 0 0 127 0" result="hardAlpha"></feColorMatrix>
      <feOffset dy="4"></feOffset>
      <feGaussianBlur stdDeviation="2"></feGaussianBlur>
      <feComposite in2="hardAlpha" operator="arithmetic" k2="-1" k3="1"></feComposite>
      <feColorMatrix type="matrix" values="0 0 0 0 0 0 0 0 0 0 0 0 0 0 0 0 0 0 0.17 0"></feColorMatrix>
      <feBlend mode="normal" in2="shape" result="effect1_innerShadow_308_626"></feBlend>
    </filter>
    <radialGradient id="paint0_radial_308_626" cx="0" cy="0" r="1" gradientUnits="userSpaceOnUse" gradientTransform="translate(31.619 44.8) rotate(90) scale(44.8 18.0194)">
      <stop stop-color="white" stop-opacity="0.5"></stop>
      <stop offset="1" stop-color="white" stop-opacity="0.3"></stop>
    </radialGradient>
    <clipPath id="clip0_308_626">
      <rect width="64" height="90" fill="white"></rect>
    </clipPath>
  </defs>
</svg>