<svg xmlns="http://www.w3.org/2000/svg" width="100%" height="100%" viewBox="0 0 64 90" fill="none">
  <g filter="url(#filter0_i_308_784)">
    <path d="M32.1808 88.8286C26.1544 88.8286 20.6905 87.7037 15.7891 85.4539C10.8876 83.1237 7.03076 79.8292 4.21846 75.5706C1.40615 71.2316 0 66.1695 0 60.3842H16.5122C16.5122 63.1965 17.1551 65.6874 18.4407 67.8569C19.7263 70.0264 21.5342 71.7137 23.8644 72.919C26.275 74.0439 29.0069 74.6064 32.0603 74.6064C35.0333 74.6064 37.6849 74.1243 40.0151 73.1601C42.4256 72.1155 44.2737 70.6692 45.5593 68.8211C46.9253 66.8926 47.6083 64.7232 47.6083 62.3126C47.6083 59.661 46.9253 57.4112 45.5593 55.5631C44.1933 53.6346 42.2649 52.2285 39.774 51.3446C37.3635 50.3804 34.5512 49.8983 31.3371 49.8983C28.6855 49.8983 26.4357 49.8983 24.5876 49.8983V36.8814C26.3553 36.8814 28.0427 36.8814 29.6497 36.8814C32.5424 36.8814 35.1136 36.3189 37.3635 35.194C39.6133 34.069 41.3409 32.5825 42.5461 30.7345C43.7514 28.806 44.354 26.7972 44.354 24.7081C44.354 21.6547 43.1488 19.1638 40.7382 17.2354C38.3277 15.2266 35.2743 14.2222 31.5782 14.2222C29.0069 14.2222 26.6365 14.7847 24.467 15.9096C22.2976 16.9542 20.6102 18.4809 19.4049 20.4896C18.1996 22.4984 17.597 24.7081 17.597 27.1186H1.44633C1.44633 22.1368 2.73195 17.597 5.3032 13.4991C7.87445 9.32078 11.4501 6.02636 16.0301 3.61582C20.6905 1.20527 25.9134 0 31.6987 0C37.1626 0 42.1042 1.00439 46.5235 3.01318C51.0232 5.02197 54.5185 7.7941 57.0094 11.3296C59.5003 14.865 60.7458 18.8826 60.7458 23.3823C60.7458 27.9623 59.3396 32.1406 56.5273 35.9171C53.715 39.6133 50.1795 41.9435 45.9209 42.9077C51.2241 43.3898 55.5631 45.5593 58.9379 49.4162C62.3126 53.2731 64 57.9736 64 63.5179C64 68.339 62.634 72.678 59.9021 76.5348C57.1701 80.3917 53.3534 83.4049 48.452 85.5744C43.6309 87.7439 38.2072 88.8286 32.1808 88.8286Z" fill="url(#paint0_radial_308_784)"></path>
    <path d="M32.1808 88.8286C26.1544 88.8286 20.6905 87.7037 15.7891 85.4539C10.8876 83.1237 7.03076 79.8292 4.21846 75.5706C1.40615 71.2316 0 66.1695 0 60.3842H16.5122C16.5122 63.1965 17.1551 65.6874 18.4407 67.8569C19.7263 70.0264 21.5342 71.7137 23.8644 72.919C26.275 74.0439 29.0069 74.6064 32.0603 74.6064C35.0333 74.6064 37.6849 74.1243 40.0151 73.1601C42.4256 72.1155 44.2737 70.6692 45.5593 68.8211C46.9253 66.8926 47.6083 64.7232 47.6083 62.3126C47.6083 59.661 46.9253 57.4112 45.5593 55.5631C44.1933 53.6346 42.2649 52.2285 39.774 51.3446C37.3635 50.3804 34.5512 49.8983 31.3371 49.8983C28.6855 49.8983 26.4357 49.8983 24.5876 49.8983V36.8814C26.3553 36.8814 28.0427 36.8814 29.6497 36.8814C32.5424 36.8814 35.1136 36.3189 37.3635 35.194C39.6133 34.069 41.3409 32.5825 42.5461 30.7345C43.7514 28.806 44.354 26.7972 44.354 24.7081C44.354 21.6547 43.1488 19.1638 40.7382 17.2354C38.3277 15.2266 35.2743 14.2222 31.5782 14.2222C29.0069 14.2222 26.6365 14.7847 24.467 15.9096C22.2976 16.9542 20.6102 18.4809 19.4049 20.4896C18.1996 22.4984 17.597 24.7081 17.597 27.1186H1.44633C1.44633 22.1368 2.73195 17.597 5.3032 13.4991C7.87445 9.32078 11.4501 6.02636 16.0301 3.61582C20.6905 1.20527 25.9134 0 31.6987 0C37.1626 0 42.1042 1.00439 46.5235 3.01318C51.0232 5.02197 54.5185 7.7941 57.0094 11.3296C59.5003 14.865 60.7458 18.8826 60.7458 23.3823C60.7458 27.9623 59.3396 32.1406 56.5273 35.9171C53.715 39.6133 50.1795 41.9435 45.9209 42.9077C51.2241 43.3898 55.5631 45.5593 58.9379 49.4162C62.3126 53.2731 64 57.9736 64 63.5179C64 68.339 62.634 72.678 59.9021 76.5348C57.1701 80.3917 53.3534 83.4049 48.452 85.5744C43.6309 87.7439 38.2072 88.8286 32.1808 88.8286Z" fill="#0066FF" fill-opacity="0.26"></path>
  </g>
  <path d="M32.1808 88.8286C26.1544 88.8286 20.6905 87.7037 15.7891 85.4539C10.8876 83.1237 7.03076 79.8292 4.21846 75.5706C1.40615 71.2316 0 66.1695 0 60.3842H16.5122C16.5122 63.1965 17.1551 65.6874 18.4407 67.8569C19.7263 70.0264 21.5342 71.7137 23.8644 72.919C26.275 74.0439 29.0069 74.6064 32.0603 74.6064C35.0333 74.6064 37.6849 74.1243 40.0151 73.1601C42.4256 72.1155 44.2737 70.6692 45.5593 68.8211C46.9253 66.8926 47.6083 64.7232 47.6083 62.3126C47.6083 59.661 46.9253 57.4112 45.5593 55.5631C44.1933 53.6346 42.2649 52.2285 39.774 51.3446C37.3635 50.3804 34.5512 49.8983 31.3371 49.8983C28.6855 49.8983 26.4357 49.8983 24.5876 49.8983V36.8814C26.3553 36.8814 28.0427 36.8814 29.6497 36.8814C32.5424 36.8814 35.1136 36.3189 37.3635 35.194C39.6133 34.069 41.3409 32.5825 42.5461 30.7345C43.7514 28.806 44.354 26.7972 44.354 24.7081C44.354 21.6547 43.1488 19.1638 40.7382 17.2354C38.3277 15.2266 35.2743 14.2222 31.5782 14.2222C29.0069 14.2222 26.6365 14.7847 24.467 15.9096C22.2976 16.9542 20.6102 18.4809 19.4049 20.4896C18.1996 22.4984 17.597 24.7081 17.597 27.1186H1.44633C1.44633 22.1368 2.73195 17.597 5.3032 13.4991C7.87445 9.32078 11.4501 6.02636 16.0301 3.61582C20.6905 1.20527 25.9134 0 31.6987 0C37.1626 0 42.1042 1.00439 46.5235 3.01318C51.0232 5.02197 54.5185 7.7941 57.0094 11.3296C59.5003 14.865 60.7458 18.8826 60.7458 23.3823C60.7458 27.9623 59.3396 32.1406 56.5273 35.9171C53.715 39.6133 50.1795 41.9435 45.9209 42.9077C51.2241 43.3898 55.5631 45.5593 58.9379 49.4162C62.3126 53.2731 64 57.9736 64 63.5179C64 68.339 62.634 72.678 59.9021 76.5348C57.1701 80.3917 53.3534 83.4049 48.452 85.5744C43.6309 87.7439 38.2072 88.8286 32.1808 88.8286Z" stroke="#D28E0B" style="mix-blend-mode:color-dodge"></path>
  <defs>
    <filter id="filter0_i_308_784" x="-0.5" y="-0.5" width="65" height="93.8286" filterUnits="userSpaceOnUse" color-interpolation-filters="sRGB">
      <feFlood flood-opacity="0" result="BackgroundImageFix"></feFlood>
      <feBlend mode="normal" in="SourceGraphic" in2="BackgroundImageFix" result="shape"></feBlend>
      <feColorMatrix in="SourceAlpha" type="matrix" values="0 0 0 0 0 0 0 0 0 0 0 0 0 0 0 0 0 0 127 0" result="hardAlpha"></feColorMatrix>
      <feOffset dy="4"></feOffset>
      <feGaussianBlur stdDeviation="2"></feGaussianBlur>
      <feComposite in2="hardAlpha" operator="arithmetic" k2="-1" k3="1"></feComposite>
      <feColorMatrix type="matrix" values="0 0 0 0 0 0 0 0 0 0 0 0 0 0 0 0 0 0 0.17 0"></feColorMatrix>
      <feBlend mode="normal" in2="shape" result="effect1_innerShadow_308_784"></feBlend>
    </filter>
    <radialGradient id="paint0_radial_308_784" cx="0" cy="0" r="1" gradientUnits="userSpaceOnUse" gradientTransform="translate(32 44.4143) rotate(90) scale(44.4143 32)">
      <stop stop-color="white" stop-opacity="0.5"></stop>
      <stop offset="1" stop-color="white" stop-opacity="0.3"></stop>
    </radialGradient>
  </defs>
</svg>