<svg xmlns="http://www.w3.org/2000/svg" width="100%" height="100%" viewBox="0 0 64 90" fill="none">
  <g filter="url(#filter0_i_308_728)">
    <path d="M0.799805 75.9572L32.5101 49.2861L33.3704 48.5487C37.8771 44.6156 41.1546 41.0513 43.2031 37.8557C45.3335 34.5781 46.3987 31.2187 46.3987 27.7772C46.3987 23.7622 45.0877 20.5666 42.4656 18.1904C39.9255 15.7322 36.5251 14.5032 32.2643 14.5032C27.266 14.5032 23.4149 16.2648 20.7109 19.7882C18.0069 23.3116 16.9008 28.023 17.3924 33.9226H1.53725C0.963682 27.4495 1.94695 21.6318 4.48705 16.4697C7.02715 11.3075 10.7144 7.29255 15.5488 4.42469C20.4651 1.4749 26.0369 0 32.2643 0C38.4097 0 43.8176 1.18811 48.4881 3.56433C53.2406 5.85862 56.8869 9.13617 59.427 13.397C61.9671 17.5759 63.2371 22.3693 63.2371 27.7772C63.2371 33.3491 61.5574 38.757 58.1979 44.0011C54.8384 49.1632 49.5533 54.6122 42.3427 60.3479L24.2752 75.0968H63.1142V89.6H0.799805V75.9572Z" fill="url(#paint0_radial_308_728)"></path>
    <path d="M0.799805 75.9572L32.5101 49.2861L33.3704 48.5487C37.8771 44.6156 41.1546 41.0513 43.2031 37.8557C45.3335 34.5781 46.3987 31.2187 46.3987 27.7772C46.3987 23.7622 45.0877 20.5666 42.4656 18.1904C39.9255 15.7322 36.5251 14.5032 32.2643 14.5032C27.266 14.5032 23.4149 16.2648 20.7109 19.7882C18.0069 23.3116 16.9008 28.023 17.3924 33.9226H1.53725C0.963682 27.4495 1.94695 21.6318 4.48705 16.4697C7.02715 11.3075 10.7144 7.29255 15.5488 4.42469C20.4651 1.4749 26.0369 0 32.2643 0C38.4097 0 43.8176 1.18811 48.4881 3.56433C53.2406 5.85862 56.8869 9.13617 59.427 13.397C61.9671 17.5759 63.2371 22.3693 63.2371 27.7772C63.2371 33.3491 61.5574 38.757 58.1979 44.0011C54.8384 49.1632 49.5533 54.6122 42.3427 60.3479L24.2752 75.0968H63.1142V89.6H0.799805V75.9572Z" fill="#0066FF" fill-opacity="0.26"></path>
  </g>
  <path d="M0.799805 75.9572L32.5101 49.2861L33.3704 48.5487C37.8771 44.6156 41.1546 41.0513 43.2031 37.8557C45.3335 34.5781 46.3987 31.2187 46.3987 27.7772C46.3987 23.7622 45.0877 20.5666 42.4656 18.1904C39.9255 15.7322 36.5251 14.5032 32.2643 14.5032C27.266 14.5032 23.4149 16.2648 20.7109 19.7882C18.0069 23.3116 16.9008 28.023 17.3924 33.9226H1.53725C0.963682 27.4495 1.94695 21.6318 4.48705 16.4697C7.02715 11.3075 10.7144 7.29255 15.5488 4.42469C20.4651 1.4749 26.0369 0 32.2643 0C38.4097 0 43.8176 1.18811 48.4881 3.56433C53.2406 5.85862 56.8869 9.13617 59.427 13.397C61.9671 17.5759 63.2371 22.3693 63.2371 27.7772C63.2371 33.3491 61.5574 38.757 58.1979 44.0011C54.8384 49.1632 49.5533 54.6122 42.3427 60.3479L24.2752 75.0968H63.1142V89.6H0.799805V75.9572Z" stroke="#D28E0B" style="mix-blend-mode:color-dodge"></path>
  <defs>
    <filter id="filter0_i_308_728" x="0.299805" y="-0.5" width="63.4375" height="94.6" filterUnits="userSpaceOnUse" color-interpolation-filters="sRGB">
      <feFlood flood-opacity="0" result="BackgroundImageFix"></feFlood>
      <feBlend mode="normal" in="SourceGraphic" in2="BackgroundImageFix" result="shape"></feBlend>
      <feColorMatrix in="SourceAlpha" type="matrix" values="0 0 0 0 0 0 0 0 0 0 0 0 0 0 0 0 0 0 127 0" result="hardAlpha"></feColorMatrix>
      <feOffset dy="4"></feOffset>
      <feGaussianBlur stdDeviation="2"></feGaussianBlur>
      <feComposite in2="hardAlpha" operator="arithmetic" k2="-1" k3="1"></feComposite>
      <feColorMatrix type="matrix" values="0 0 0 0 0 0 0 0 0 0 0 0 0 0 0 0 0 0 0.17 0"></feColorMatrix>
      <feBlend mode="normal" in2="shape" result="effect1_innerShadow_308_728"></feBlend>
    </filter>
    <radialGradient id="paint0_radial_308_728" cx="0" cy="0" r="1" gradientUnits="userSpaceOnUse" gradientTransform="translate(32.0185 44.8) rotate(90) scale(44.8 31.2187)">
      <stop stop-color="white" stop-opacity="0.5"></stop>
      <stop offset="1" stop-color="white" stop-opacity="0.3"></stop>
    </radialGradient>
  </defs>
</svg>